<svg xmlns="http://www.w3.org/2000/svg" viewBox="0 0 750 500"><g id="freepik--Shadow--inject-42"><ellipse cx="341" cy="395.01" rx="274.84" ry="63.27" style="fill:#ebebeb"></ellipse></g><g id="freepik--Floor--inject-42"><polygon points="702.49 209.08 47.51 324.57 47.51 314 702.49 198.51 702.49 209.08" style="fill:#c7c7c7"></polygon><path d="M81.21,308.06a28.18,28.18,0,0,1,0,10.57,24.25,24.25,0,0,1-.5-5.29A24.85,24.85,0,0,1,81.21,308.06Z" style="fill:#263238"></path><path d="M120.38,301.15a24.89,24.89,0,0,1,.5,5.29,24.22,24.22,0,0,1-.5,5.28,24.85,24.85,0,0,1-.5-5.28A25.55,25.55,0,0,1,120.38,301.15Z" style="fill:#263238"></path><path d="M159.55,294.24a28.23,28.23,0,0,1,0,10.58,28.23,28.23,0,0,1,0-10.58Z" style="fill:#263238"></path><path d="M198.73,287.33a28.8,28.8,0,0,1,0,10.58,28.23,28.23,0,0,1,0-10.58Z" style="fill:#263238"></path><path d="M237.9,280.43a28.18,28.18,0,0,1,0,10.57,28.18,28.18,0,0,1,0-10.57Z" style="fill:#263238"></path><path d="M277.07,273.52a25.62,25.62,0,0,1,.5,5.29,25,25,0,0,1-.5,5.29,24.37,24.37,0,0,1-.5-5.29A25.62,25.62,0,0,1,277.07,273.52Z" style="fill:#263238"></path><path d="M316.24,266.61a25,25,0,0,1,.5,5.29,24.31,24.31,0,0,1-.5,5.29,28.23,28.23,0,0,1,0-10.58Z" style="fill:#263238"></path><path d="M355.41,259.71a28.18,28.18,0,0,1,0,10.57,28.18,28.18,0,0,1,0-10.57Z" style="fill:#263238"></path><path d="M394.59,252.8a28.18,28.18,0,0,1,0,10.57,28.18,28.18,0,0,1,0-10.57Z" style="fill:#263238"></path><path d="M433.76,245.89a28.23,28.23,0,0,1,0,10.58,24.37,24.37,0,0,1-.5-5.29A25,25,0,0,1,433.76,245.89Z" style="fill:#263238"></path><path d="M472.93,239a25.68,25.68,0,0,1,.5,5.29,24.25,24.25,0,0,1-.5,5.29,24.89,24.89,0,0,1-.5-5.29A25.68,25.68,0,0,1,472.93,239Z" style="fill:#263238"></path><path d="M512.1,232.08a28.18,28.18,0,0,1,0,10.57,28.18,28.18,0,0,1,0-10.57Z" style="fill:#263238"></path><path d="M551.28,225.17a28.8,28.8,0,0,1,0,10.58,28.23,28.23,0,0,1,0-10.58Z" style="fill:#263238"></path><path d="M590.45,218.26a28.23,28.23,0,0,1,0,10.58,28.23,28.23,0,0,1,0-10.58Z" style="fill:#263238"></path><path d="M629.62,211.36a25.52,25.52,0,0,1,.5,5.28,24.89,24.89,0,0,1-.5,5.29,24.25,24.25,0,0,1-.5-5.29A24.85,24.85,0,0,1,629.62,211.36Z" style="fill:#263238"></path><path d="M668.79,204.45a24.89,24.89,0,0,1,.5,5.29,24.22,24.22,0,0,1-.5,5.28,28.18,28.18,0,0,1,0-10.57Z" style="fill:#263238"></path><polygon points="47.51 198.51 129.38 198.26 211.25 198.18 375 198.01 538.75 198.18 620.62 198.26 702.49 198.51 620.62 198.75 538.75 198.84 375 199.01 211.25 198.84 129.38 198.75 47.51 198.51" style="fill:#263238"></polygon></g><g id="freepik--Car--inject-42"><path d="M564.49,359.72l102.7-18.11h-7s7.43-11,.8-15.73-14.15,1.87-14.15,1.87-1.17-13.91-12.26-14.87-16.7,21.17-16.7,21.17-2.42-4.52-10-1.21S596.05,348,596.05,348l-31.56,11.69" style="fill:#dbdbdb"></path><path d="M582,368.33l110.34-19.45h-7.51s8-11.81.86-16.91-15.21,2-15.21,2-1.25-14.94-13.17-16-17.95,22.74-17.95,22.74-2.6-4.85-10.72-1.29-12.73,16.32-12.73,16.32L582,368.33" style="fill:#ebebeb"></path><path d="M510.66,307.15,613.36,289h-7s7.43-11,.8-15.73S593,275.18,593,275.18s-1.16-13.91-12.26-14.87-16.69,21.17-16.69,21.17-2.43-4.52-10-1.21-11.86,15.19-11.86,15.19l-31.56,11.69" style="fill:#dbdbdb"></path><path d="M556.72,308.11l110.35-19.45h-7.52s8-11.81.86-16.91-15.21,2-15.21,2-1.25-14.94-13.17-16-17.94,22.74-17.94,22.74-2.61-4.85-10.72-1.29-12.74,16.32-12.74,16.32l-33.91,12.55" style="fill:#ebebeb"></path><path d="M281.89,398.84c-1.36,27.08,8.67,60.29,37.2,60.29,2.79,0,17.75.63,20.31-.07,23.52-6.42,40.07-41.68,40.07-72.76,0-24.21-6.89-51.31-30.66-54.57-1.59-.21-18.59,0-20.33,0C299.68,331.73,283.36,369.7,281.89,398.84Z" style="fill:#37474f"></path><path d="M304.49,398.84c-1.36,27.08,8.67,60.29,37.19,60.29s44.77-38.38,44.76-72.83c0-25.82-7.52-54.57-35.37-54.57C322.28,331.73,306,369.7,304.49,398.84Z" style="fill:#263238"></path><path d="M316.43,398.05c-1,20.86,6.41,46.43,27.49,46.43S377,414.93,377,388.4c0-19.88-5.56-42-26.15-42C329.58,346.38,317.51,375.62,316.43,398.05Z" style="fill:#c7c7c7"></path><path d="M357.23,350.89c-1.14,8.47-4.9,35.47-7.09,35.47-1.84,0-5.13-25.48-6.27-34.7a19.44,19.44,0,0,1,7.58-1.54A21.1,21.1,0,0,1,357.23,350.89Z" style="fill:#263238"></path><path d="M346.06,388c-1.23.73-10.54-11.45-17.29-20.57a41.77,41.77,0,0,1,7.65-10.64C340.42,367.22,347.72,387,346.06,388Z" style="fill:#263238"></path><path d="M343.84,391.1c-.62,1.11-11.37-3.16-21-7.26a74.09,74.09,0,0,1,3.11-10.09C334.48,380.88,344.6,389.74,343.84,391.1Z" style="fill:#263238"></path><path d="M342.48,394.91c0,1.27-11.38,3.07-21.7,4.44,0-.51,0-1,.05-1.5a73.43,73.43,0,0,1,.88-8.38C331.77,391.25,342.48,393.48,342.48,394.91Z" style="fill:#263238"></path><path d="M322.49,417a68.38,68.38,0,0,1-1.62-11.54c10.09-3.82,21.86-7.93,22.6-6.61S331.61,410.08,322.49,417Z" style="fill:#263238"></path><path d="M333,436.42a28.89,28.89,0,0,1-8.07-11.63c7-9,19-24,20.62-23S336.4,428.48,333,436.42Z" style="fill:#263238"></path><path d="M354.87,438.12a18.76,18.76,0,0,1-9.59,2.64,19.86,19.86,0,0,1-3.84-.36c.93-7.09,4.91-36.47,7.22-36.47C350.46,403.93,353.68,428.5,354.87,438.12Z" style="fill:#263238"></path><path d="M368.45,421a45.76,45.76,0,0,1-6.64,11.13c-4-10.5-10.41-28-8.84-29C354.11,402.47,362,412.46,368.45,421Z" style="fill:#263238"></path><path d="M373.12,405.48a80,80,0,0,1-2.34,9.24c-7.47-6.35-15.11-13.28-14.43-14.51C356.88,399.24,364.89,402.16,373.12,405.48Z" style="fill:#263238"></path><path d="M374.64,391.81c-.09,2.86-.32,5.74-.69,8.59-8.36-1.5-16.1-3.23-16.1-4.47S366,393.21,374.64,391.81Z" style="fill:#263238"></path><path d="M374.66,386.37c-8.47,3.28-16.93,6.2-17.57,5.06s8.57-9,16.65-15.66A79.22,79.22,0,0,1,374.66,386.37Z" style="fill:#263238"></path><path d="M372,368.08s0,0,0,0c-6.81,8.82-16.32,20.69-17.75,19.83s7.13-23,10.85-32.31A29.6,29.6,0,0,1,372,368.08Z" style="fill:#263238"></path><path d="M533,338.66c-.8,18.83,5.07,41.93,21.75,41.93,1.63,0,10.38.43,11.87-.06,13.76-4.46,23.44-29,23.44-50.59,0-16.84-4-35.69-17.93-37.95-.93-.15-10.87,0-11.89,0C543.36,292,533.82,318.4,533,338.66Z" style="fill:#37474f"></path><path d="M546.17,338.66c-.79,18.83,5.07,41.93,21.75,41.93s26.17-26.69,26.17-50.65c0-18-4.39-37.95-20.68-37.95C556.57,292,547,318.4,546.17,338.66Z" style="fill:#263238"></path><path d="M553.15,338.11c-.59,14.5,3.75,32.29,16.08,32.29s19.35-20.55,19.35-39c0-13.83-3.26-29.22-15.29-29.22C560.84,302.18,553.79,322.51,553.15,338.11Z" style="fill:#c7c7c7"></path><path d="M577,305.31c-.66,5.89-2.86,24.67-4.14,24.67-1.08,0-3-17.72-3.67-24.13a9.82,9.82,0,0,1,4.43-1.08A10.42,10.42,0,0,1,577,305.31Z" style="fill:#263238"></path><path d="M570.48,331.1c-.72.51-6.17-8-10.11-14.31a29.34,29.34,0,0,1,4.47-7.39C567.18,316.67,571.45,330.41,570.48,331.1Z" style="fill:#263238"></path><path d="M569.18,333.28c-.36.77-6.65-2.2-12.3-5a59.69,59.69,0,0,1,1.82-7C563.71,326.17,569.62,332.33,569.18,333.28Z" style="fill:#263238"></path><path d="M568.39,335.92c0,.89-6.66,2.14-12.69,3.09,0-.35,0-.69,0-1,.07-1.89.24-3.84.51-5.83C562.12,333.38,568.39,334.93,568.39,335.92Z" style="fill:#263238"></path><path d="M556.7,351.3a56.08,56.08,0,0,1-1-8c5.9-2.65,12.78-5.51,13.22-4.59S562,346.47,556.7,351.3Z" style="fill:#263238"></path><path d="M562.85,364.79a20.43,20.43,0,0,1-4.72-8.09c4.12-6.27,11.13-16.67,12.06-16S564.83,359.27,562.85,364.79Z" style="fill:#263238"></path><path d="M575.63,366a9.65,9.65,0,0,1-7.85,1.59c.54-4.93,2.87-25.36,4.22-25.36C573.05,342.2,574.93,359.29,575.63,366Z" style="fill:#263238"></path><path d="M583.57,354.05a33.71,33.71,0,0,1-3.88,7.74c-2.35-7.31-6.09-19.48-5.17-20.14C575.19,341.18,579.8,348.13,583.57,354.05Z" style="fill:#263238"></path><path d="M586.3,343.27a60.92,60.92,0,0,1-1.37,6.43c-4.37-4.42-8.83-9.23-8.43-10.09C576.81,338.94,581.49,341,586.3,343.27Z" style="fill:#263238"></path><path d="M587.19,333.77c-.05,2-.19,4-.4,6-4.89-1-9.42-2.24-9.42-3.11S582.16,334.74,587.19,333.77Z" style="fill:#263238"></path><path d="M587.2,330c-5,2.28-9.9,4.31-10.27,3.51s5-6.28,9.73-10.89A64.4,64.4,0,0,1,587.2,330Z" style="fill:#263238"></path><path d="M585.66,317.26s0,0,0,0c-4,6.14-9.55,14.39-10.38,13.79s4.17-16,6.35-22.47A22.06,22.06,0,0,1,585.66,317.26Z" style="fill:#263238"></path><path d="M599.72,277.86c-.2,1.49-2.13,9.4-2.13,9.4s.42,37.84-2.78,55.8l-1.76.82c4.51-44.27-11.07-52.34-18.76-51.63-6.95.64-19.53,10.26-25.94,32.5a147.62,147.62,0,0,0-5.93,42.58c-3.74,1.7-6.34,2.84-7,3.09-3.64,1.28-10.48-1.71-10.48-1.71s-112.25,39.83-143.69,50.55c1.88-5.05,4.95-28.54,3.95-45.42s-8.83-42.11-34.66-42.11-44.5,35.91-48.14,57.72,3.45,47.59,2.15,48.07h0c-10.44,2.22-18.32,3.84-19.95,4.08-5.7.87-89.22,3.14-95.2,2.86s-60.7-12-77-16.82-41-17.1-41.61-19.1-.46-17.81-.35-18.45,3.85-4.49,3.85-4.49l-5.56-22.87s29.7-56.61,74.39-70.34c24.36-7.48,35.7-5.77,42.75-6S245.51,280,247.66,280s88.27-48.74,105.59-53,103.89-.43,111.37,0,61.14,9,86.8,24.37c0,0,21.16,3.2,22.43,3.42s18.39,5.78,19.25,6.42S599.94,276.36,599.72,277.86Z" style="fill:#8E93DE"></path><path d="M448.59,240.67l-30.78,54.07s-108.88,1.65-114.43,1.07-33.35-4.69-37.78-6.12S247.66,280,247.66,280c1.76,0,60.68-33.17,91-47.19C417.87,234.3,448.59,240.67,448.59,240.67Z" style="fill:#263238"></path><path d="M448.59,240.67l-27.25,47.89c-8.31.21-109.66,2.67-115,2.12-5.57-.56-32.19-4-36.62-5.41S253,278,252.43,277.72c14.33-7.43,57.34-31.24,83.29-43.54l2.92-1.37C417.87,234.3,448.59,240.67,448.59,240.67Z" style="fill:#37474f"></path><path d="M447.32,240.42l-163.77,47.3a132.49,132.49,0,0,1-13.81-2.45c-3.16-1-10.69-4.46-14.7-6.33L404.8,235.69C430.1,237.57,443.39,239.72,447.32,240.42Z" style="fill:#455a64"></path><path d="M371.92,233.82l-81.27,23.47c7.87-4.19,16.06-8.52,23.89-12.55l40-11.54Q363.72,233.46,371.92,233.82Z" style="fill:#455a64"></path><path d="M433.55,267.1l-3.84,6.76L375.1,289.63c-7,.16-14.14.32-21.12.46Z" style="fill:#455a64"></path><path d="M424.87,282.35l-.95,1.66-17,4.9c-1.63,0-3.37.07-5.2.13Z" style="fill:#455a64"></path><path d="M430.49,293.68s30.79-3.56,34.06-3.85S529,270.31,529.4,269.74s3.42-12.54,3.42-12.54-21-13.26-22.81-14-30.78-5.56-34.06-5-16.1,3.56-17.1,4.56S430.49,293.68,430.49,293.68Z" style="fill:#263238"></path><path d="M528.47,254.45c-.17,3.72-1.93,13.72-1.93,13.72s-60.42,16.39-62,16.67-16.82,1.07-16.82,1.07a12.89,12.89,0,0,1-.71-2.42c0-.52,9.6-33.65,11.51-40.21h0a5.1,5.1,0,0,1,.32-.47c1-1,13.82-4,17.1-4.56s32.21,4.28,34.06,5C511.33,243.74,522.22,250.53,528.47,254.45Z" style="fill:#37474f"></path><path d="M518.47,248.23l-67,19.33c.58-2,1.18-4.1,1.78-6.15l58.87-17C513.74,245.32,516,246.71,518.47,248.23Z" style="fill:#455a64"></path><path d="M527.78,254l-78.92,22.8c.14-.48.29-1,.44-1.51l77-22.22Z" style="fill:#455a64"></path><path d="M447.73,285.91l-.71-2.42s11.51-10.76,14.08-11.94,27.36,1.07,28.21,2.46a8.92,8.92,0,0,1,.75,5.13c-.21,1.07-21.8,7.7-24.15,7.8S447.73,285.91,447.73,285.91Z" style="fill:#8E93DE"></path><path d="M201.62,370.06s10.26-15.67,13.68-17.95,53.58-27.65,56.72-28.79,26.79-7,26.79-7-1.35,7.69-2.49,9.26-56.94,39.48-62.85,41.12S201.62,370.06,201.62,370.06Z" style="fill:#37474f"></path><path d="M288.66,318.88c-2.38,3.3-7.87,10.86-9.38,12.13-1.91,1.65-46.38,28.08-49.43,28.75-2.2.48-13-1.72-18.86-3a26.15,26.15,0,0,1,4.31-4.68c3.42-2.29,53.58-27.65,56.72-28.79C273.76,322.69,281.83,320.61,288.66,318.88Z" style="fill:#455a64"></path><path d="M83,339.28A20.92,20.92,0,0,0,88,349.4s16.39-16.46,17.67-18.31,7.91-15.11,8.55-16.53,11-14.2,11.81-14.62c0,0-22.18,12.87-30.12,20.53C93.91,322.43,83.26,338.07,83,339.28Z" style="fill:#37474f"></path><path d="M126.05,300l-.06,0-.21.19c-2.92,2.46-26.24,22.23-27.34,23.74s-13.33,21.34-13.33,21.34a18.08,18.08,0,0,1-2.13-6c.28-1.21,10.94-16.86,13-18.81,7.7-7.42,28.75-19.74,30.06-20.49C126,300,126,300,126.05,300Z" style="fill:#455a64"></path><g style="opacity:0.30000000000000004"><path d="M300.89,438.29a146.41,146.41,0,0,1-3.61-25.11,119.74,119.74,0,0,1-.07-12.71c.06-2.12.3-4.23.48-6.34s.5-4.22.92-6.31a85.4,85.4,0,0,1,3.31-12.29,108.72,108.72,0,0,1,4.84-11.78,95.15,95.15,0,0,1,13.82-21.34,58.36,58.36,0,0,1,9.38-8.66,40.55,40.55,0,0,1,11.31-5.95A33.25,33.25,0,0,1,354,326.3a33.76,33.76,0,0,1,12.36,3.18,32,32,0,0,1,10.14,7.71,43,43,0,0,1,6.86,10.72A69.22,69.22,0,0,1,389,372.55a69.17,69.17,0,0,0-6.08-24.44A42.87,42.87,0,0,0,376,337.62a31.21,31.21,0,0,0-10-7.44,33.85,33.85,0,0,0-12.09-3,32,32,0,0,0-12.34,1.51,39.38,39.38,0,0,0-11,5.85,57.67,57.67,0,0,0-9.19,8.55,93.73,93.73,0,0,0-13.75,21.08A101.81,101.81,0,0,0,299.36,388c-.44,2.06-.66,4.16-1,6.24s-.46,4.19-.54,6.3a121.3,121.3,0,0,0-.08,12.65A146.7,146.7,0,0,0,300.89,438.29Z"></path><path d="M546.78,319.48a54.75,54.75,0,0,1,8.05-17.84,37.72,37.72,0,0,1,6.63-7.31,29.78,29.78,0,0,1,8.44-5.19,15.46,15.46,0,0,1,9.9-.57,16.15,16.15,0,0,1,4.55,2.12,16.58,16.58,0,0,1,1.94,1.59l.9.88.79,1a27.22,27.22,0,0,1,4.43,8.8,51.16,51.16,0,0,1,1.84,9.63,57.73,57.73,0,0,0-2.3-9.48,26.67,26.67,0,0,0-4.57-8.46l-.78-.91-.88-.81a15.47,15.47,0,0,0-1.85-1.49,15,15,0,0,0-4.31-2,14.59,14.59,0,0,0-9.31.63,28.69,28.69,0,0,0-8.2,4.95,40.17,40.17,0,0,0-6.6,7.06,48.84,48.84,0,0,0-5,8.33c-.77,1.44-1.35,3-2,4.46S547.35,318,546.78,319.48Z"></path></g><g style="opacity:0.2"><path d="M174.83,422.51c10.94-.33,21.88-.58,32.83-.46,2.74,0,5.48.09,8.21.25a24,24,0,0,1,4.11.49,1.37,1.37,0,0,1,.55.26c.1.09.11.22.16.33s0,.21,0,.32a3.51,3.51,0,0,1-.45,1,14.66,14.66,0,0,1-1.26,1.65,72.62,72.62,0,0,1-5.86,5.78q-3,2.76-6.21,5.38l-.27-.38c5.59-3.42,11.25-6.75,16.75-10.3a9.14,9.14,0,0,0,1-.7,3.63,3.63,0,0,0,.67-.94,9.33,9.33,0,0,0,.85-2.24,4.81,4.81,0,0,0,.12-2.31.82.82,0,0,0-.11-.23l0-.05s0,0,0,0l-.1,0-.59-.07-1.21,0c-3.27,0-6.55.11-9.83.23-6.55.27-13.09.61-19.64,1Zm0,0c13.08-.94,26.17-1.79,39.27-2.38,3.28-.14,6.55-.29,9.84-.28l1.24,0c.21,0,.42,0,.64.07a1,1,0,0,1,.19.06.43.43,0,0,1,.13.09l.06.08a1.07,1.07,0,0,1,.16.32,5.22,5.22,0,0,1-.09,2.55,10.11,10.11,0,0,1-.88,2.35,4.16,4.16,0,0,1-.75,1,8.69,8.69,0,0,1-1,.76c-5.51,3.58-11.12,7-16.75,10.33l-.27-.38c2.11-1.74,4.19-3.51,6.22-5.34a71.82,71.82,0,0,0,5.85-5.72,12.6,12.6,0,0,0,1.23-1.6,2.58,2.58,0,0,0,.4-.86,1.21,1.21,0,0,0,0-.19s0-.11-.05-.13a1.39,1.39,0,0,0-.38-.16,25.51,25.51,0,0,0-4-.5c-2.72-.17-5.46-.23-8.19-.28-5.47-.1-10.95-.07-16.42,0S180.3,422.41,174.83,422.51Z"></path><path d="M85.49,408.86c-1.43-1.29-2.79-2.66-4.12-4.05a43.93,43.93,0,0,1-3.78-4.39,4.06,4.06,0,0,1-.67-1.33l-.27-1.42-.52-2.84a41,41,0,0,1-.71-5.77,2.14,2.14,0,0,1,.11-.77.41.41,0,0,1,.18-.24.45.45,0,0,1,.33,0,3.45,3.45,0,0,1,.34.19c.42.28.79.59,1.17.89.74.62,1.46,1.26,2.18,1.91,1.43,1.3,2.83,2.62,4.22,3.95q4.18,4,8.24,8.12l-.31.33q-3.34-2.82-6.73-5.59-1.7-1.38-3.42-2.73c-.58-.44-1.16-.88-1.75-1.3a7.24,7.24,0,0,0-.9-.58l-.2-.09c.12-.06,0,0,0,.09s-.11.32-.16.49a16.4,16.4,0,0,0-.46,4.29,1.71,1.71,0,0,0,.09.49,3.68,3.68,0,0,0,.28.45l.61.91,1.24,1.8Zm0,0-5.19-7.05L79,400l-.62-.9a4.38,4.38,0,0,1-.3-.48,1.82,1.82,0,0,1-.12-.58,16.17,16.17,0,0,1,.43-4.39,4.4,4.4,0,0,1,.18-.55.74.74,0,0,1,.08-.15s0,0,.07-.08a.22.22,0,0,1,.19,0,1,1,0,0,1,.3.12,8.8,8.8,0,0,1,.94.59c.6.42,1.19.86,1.77,1.3q1.74,1.33,3.45,2.7,3.42,2.74,6.78,5.54l-.3.34-8.23-8.11c-1.38-1.34-2.77-2.68-4.18-4-.71-.65-1.42-1.3-2.16-1.92a13.42,13.42,0,0,0-1.12-.87,2,2,0,0,0-.28-.16s-.12,0,0,0,0,0,0,.05a2,2,0,0,0-.09.64,42.54,42.54,0,0,0,.66,5.7l.49,2.85.26,1.42a4,4,0,0,0,.63,1.23,44.24,44.24,0,0,0,3.66,4.44C82.77,406.13,84.09,407.53,85.49,408.86Z"></path></g><path d="M414.38,327.46l115.82-41s-32.89,24.3-38.44,27.48S450,337.65,446.45,338s-22.12,0-22.12,0Z" style="opacity:0.1"></path><path d="M137.49,372.06s29.34-21.25,31.7-22.66,61.68-32.62,64.18-33.42,16.48,4.88,16.48,4.88-76.95,32-80.58,34S137.49,372.06,137.49,372.06Z" style="opacity:0.1"></path><path d="M304.52,437.52h0l-7.82,1.64c-4.9-1.09-10-2.25-11.31-2.54-2.7-.62-10-14-11.23-15s-18.95,1-27.64.76-44.48-8-46.42-9.63,4.38-5.62,6.09-7,44.74-1.15,54.89-1.71c7.75-.44,30.39-6.35,40.61-9.11C299.85,415.26,305.72,437.08,304.52,437.52Z" style="opacity:0.1"></path><path d="M95.16,422.51c-.74-1.28-1.14-19.95-1.42-20.67s-15.54-15.1-16.25-16.1-5.13-21.23-5-22.23,19.67,7.7,24,9.33,49.45,11.9,55.43,12.9,58.57,3,59.14,2.85-1.28,16.53-2.42,18.53-10.83,7-11.83,7.12-36.28,3-37.14,3.6S148,436.62,146,436.62C134.78,436.62,96.12,424.17,95.16,422.51Z" style="fill:#263238"></path><polygon points="93.74 401.84 90.28 370.29 92.03 371.02 93.74 401.84" style="fill:#455a64"></polygon><polygon points="159.63 417.84 186.51 387.72 189.2 387.83 159.63 417.84" style="fill:#455a64"></polygon><path d="M93.74,401.84s12.4,9.55,13.39,9.84,26.23,7.84,28.58,7.84S161,418,159.63,417.84,93.74,401.84,93.74,401.84Z" style="fill:#455a64"></path><path d="M223.27,443.84c1.61,0,17.54-12.92,18.72-13.46s30.67-8.66,32.17-8.76,9.51,14.39,11.22,15,12.5,2.3,13.43,2.1-12.9,3.74-14.61,3.85S223.27,443.84,223.27,443.84Z" style="fill:#263238"></path><path d="M542.42,367.33c-3.74,1.7-6.34,2.84-7,3.09-3.64,1.28-10.48-1.71-10.48-1.71s-112.25,39.83-143.69,50.55l0,0c.09-.33.7-2.58,1.14-4.64,0-.13.05-.27.08-.41.06-.34.13-.64.18-.95,0,0,132.65-53.13,133.64-53.42s7.13.86,8.13,1.43,6.56,6.41,9.11,6.27,8.87-1.43,8.87-1.43v0C542.41,366.68,542.41,367.09,542.42,367.33Z" style="fill:#263238"></path><path d="M355.53,309.07s20.59-5.77,22.3-6,27.05,15.72,30.47,18.6,15.82,15.46,16,16.28-14.1,8.28-14.1,8.28-21.92-15.58-24.81-18.47C383.62,326,355.53,309.07,355.53,309.07Z" style="fill:#263238"></path><polygon points="383.87 309.07 377.01 312.28 401.76 329.45 408.1 326.64 383.87 309.07" style="fill:#37474f"></polygon><path d="M563.49,283.61s4.76-2.06,5.13-2.92,0-15.28-.21-16.08-5.24-2.56-5.24-2.56Z" style="fill:#263238"></path><path d="M572.36,282.94s4.06-1.5,4.28-2.19.21-12.3,0-13.2-4.28-2.41-4.28-2.41Z" style="fill:#263238"></path><path d="M580.33,280.05s3-1.76,3.36-2.4-.32-8.45-.85-8.93a13.52,13.52,0,0,0-3.16-1.12Z" style="fill:#263238"></path><polygon points="156.3 320.75 147.46 315.66 159.51 307.61 166.31 307.15 173.01 310.66 156.3 320.75" style="fill:#263238"></polygon><polygon points="229.85 329.11 249.85 320.86 269.29 321.52 248.08 329.88 229.85 329.11" style="fill:#263238"></polygon><path d="M481.25,373.76l-98.61,39.46h0a191.44,191.44,0,0,0,2.22-19c9-2.49,58.69-16.26,63.06-17.43C452.72,375.48,481.25,373.76,481.25,373.76Z" style="fill:#fff;opacity:0.2"></path><path d="M431.65,225.69c-2.34.1-66.6,2.8-69.74,3.32s-13.79,4-13.79,4l-9.48-.21c6.43-3,11.57-5.09,14.61-5.83C364.2,224.28,402.82,224.82,431.65,225.69Z" style="fill:#fff;opacity:0.2"></path><path d="M107.13,372.67l22.1,5.23s35.55-25.65,38.61-27.64S230.05,317,233.37,316s56.48-11.79,59.2-12.11,68.11-5.74,68.11-5.74-52.09-1.76-56-2.2-35.23-5.1-39.08-7.52S247.66,280,247.66,280l-21,2.23S180,304.15,156.3,320.76c-8.37,5.87-24.23,19.38-25.79,21.23S107.13,372.67,107.13,372.67Z" style="fill:#fff;opacity:0.2"></path><path d="M223.82,300.92s-40.06,20.27-42.73,21.7-32.51,21.69-33.49,22.65-31.53,29-32,29.39h0l-8.44-2s21.8-28.82,23.36-30.67,17.42-15.36,25.8-21.24c16.25-11.41,43.41-25.33,58.81-32.92h0l.43-.1c-2.7,2.32-9.92,13.2-8.87,14.87S223.82,300.92,223.82,300.92Z" style="fill:#fff;opacity:0.1"></path><g style="opacity:0.2"><path d="M105.42,333.44c1.91,1,3.84,1.92,5.77,2.84s3.88,1.84,5.85,2.68,3.93,1.7,5.92,2.51,4,1.59,6,2.37c-2.06-.6-4.11-1.25-6.12-2s-4-1.57-6-2.42-3.91-1.79-5.82-2.78S107.24,334.59,105.42,333.44Z"></path><path d="M132.07,341.13q4.35.9,8.67,1.88l8.64,2,8.6,2.13q4.31,1.08,8.58,2.25c-2.89-.6-5.78-1.22-8.67-1.88l-8.63-2-8.61-2.12C137.78,342.67,134.93,341.91,132.07,341.13Z"></path><path d="M167.84,355.24q5.49,0,11,0l10.95.13,10.95.23q5.48.15,11,.38c-3.66,0-7.31,0-11,0l-10.95-.12-11-.24C175.14,355.52,171.49,355.4,167.84,355.24Z"></path><path d="M107.7,331,126,323l9.11-4L139.6,317a44.63,44.63,0,0,0,4.42-2.24c2.76-1.78,5.42-3.8,8.08-5.78l7.94-6,15.78-12.15L168.07,297l-7.83,6.16-7.89,6.09c-2.66,2-5.27,4-8.07,5.87a43.51,43.51,0,0,1-4.49,2.22l-4.55,2-9.15,3.95-9.17,3.9Z"></path><path d="M143.47,317.33a54.24,54.24,0,0,1,5.1,2.28,55.44,55.44,0,0,1,4.88,2.71,52.77,52.77,0,0,1-5.1-2.27A55.54,55.54,0,0,1,143.47,317.33Z"></path><path d="M219,333.44c2.52-.09,5.05-.16,7.58-.19l7.59-.06,7.59.06c2.53,0,5.06.1,7.59.19-2.53.09-5.06.16-7.59.19l-7.59.06-7.59-.06C224.06,333.6,221.53,333.53,219,333.44Z"></path><path d="M120.1,370.06l15.53-14.25,7.82-7.07c1.31-1.17,2.6-2.35,4-3.5s2.87-2,4.31-3.05q8.65-6,17.38-11.92c2.91-2,5.82-3.94,8.77-5.86,1.48-1,2.91-1.93,4.51-2.79s3.15-1.53,4.72-2.31L206,309.89l9.42-4.72,4.71-2.36,2.36-1.18a24,24,0,0,1,2.41-1.1c13.54-3.87,27.15-7.31,40.75-10.84l-20.34,5.53c-6.77,1.85-13.58,3.63-20.3,5.62a21.9,21.9,0,0,0-2.37,1.1l-2.35,1.18-4.7,2.38-9.4,4.76-18.82,9.5c-1.58.77-3.15,1.56-4.76,2.3s-3,1.79-4.45,2.73c-3,1.91-5.87,3.86-8.79,5.82q-8.74,5.88-17.42,11.86c-1.44,1-2.91,2-4.31,3s-2.64,2.31-4,3.48l-7.84,7Z"></path><path d="M88,349.4c.7,3.05,1.21,6.14,1.74,9.22s1,6.19,1.25,9.31c-.7-3.06-1.22-6.14-1.74-9.23S88.33,352.52,88,349.4Z"></path><path d="M201.62,370.06c-1.71,2.74-3.58,5.36-5.43,8s-3.78,5.2-5.83,7.69c1.71-2.73,3.57-5.35,5.43-8S199.57,372.56,201.62,370.06Z"></path><path d="M219,368.67q-1,6.49-2,13c-.73,4.32-1.52,8.62-2.34,12.93q-.63,3.23-1.34,6.43c-.25,1.07-.49,2.14-.78,3.2a7.93,7.93,0,0,1-1.35,3A25.15,25.15,0,0,1,200.62,415,26.41,26.41,0,0,0,210.83,407a7.73,7.73,0,0,0,1.25-2.93c.28-1.05.52-2.12.75-3.19.46-2.13.89-4.28,1.3-6.43.86-4.29,1.64-8.6,2.45-12.9Z"></path><path d="M270.17,354.1c.46,5.14.86,10.27,1.19,15.42.18,2.57.3,5.14.41,7.72s.24,5.15.13,7.75a24.45,24.45,0,0,1-.66,3.84c-.29,1.26-.59,2.51-.9,3.77-.63,2.5-1.27,5-1.95,7.48q-2,7.47-4.21,14.88L268,400l1.88-7.49.87-3.76a23.55,23.55,0,0,0,.63-3.77c.12-2.55,0-5.13-.08-7.7l-.34-7.72Z"></path><path d="M265.6,348.83q6.31-.13,12.63-.19l12.62-.06,12.62.06q6.31,0,12.63.19-6.32.14-12.63.19l-12.62.06L278.23,349Q271.91,349,265.6,348.83Z"></path><path d="M379.23,341.19c2.43-1.26,4.94-2.35,7.44-3.46s5-2.11,7.62-3c-2.42,1.27-4.93,2.36-7.43,3.46S381.83,340.31,379.23,341.19Z"></path><path d="M298.81,316.34c-1.46-1.9-2.79-3.89-4.09-5.89s-2.55-4-3.67-6.15c1.45,1.9,2.79,3.88,4.09,5.88S297.68,314.22,298.81,316.34Z"></path><path d="M513.58,334.73c2.6.09,5.21.2,7.81.34l7.81.48,7.8.59c2.6.21,5.19.45,7.79.72q-3.91-.14-7.82-.34l-7.8-.48-7.8-.59Q517.47,335.14,513.58,334.73Z"></path><path d="M71.61,360c4.62,2,9.26,3.91,13.9,5.81,2.33.95,4.66,1.89,7,2.8,1.17.45,2.34.9,3.53,1.3s2.4.7,3.62,1c9.74,2.45,19.55,4.63,29.35,6.81,4.91,1.08,9.82,2.15,14.73,3.17,2.46.51,4.92,1,7.39,1.47a68.74,68.74,0,0,0,7.47.78c10,.73,20,1.46,30.07,2,2.5.15,5,0,7.51-.05l7.53-.29,15-.72c5-.27,10-.55,15-.93,1.25-.11,2.51-.19,3.73-.39s2.45-.54,3.67-.82l7.3-1.83c9.74-2.49,19.45-5.06,29.16-7.63l29.14-7.69c-19.37,5.32-38.76,10.6-58.21,15.64l-7.31,1.85c-1.22.29-2.44.6-3.69.84s-2.5.29-3.76.41c-5,.39-10,.68-15,1l-15.05.76-7.53.31c-2.51.07-5,.22-7.55.08-10.05-.53-20.06-1.3-30.08-2.06a68.11,68.11,0,0,1-7.51-.81c-2.47-.45-4.93-1-7.39-1.48-4.92-1-9.82-2.12-14.73-3.21-9.8-2.22-19.6-4.42-29.34-6.9-1.21-.32-2.43-.65-3.63-1.05s-2.36-.87-3.53-1.33c-2.33-.93-4.65-1.89-7-2.86Q78.51,363,71.61,360Z"></path><path d="M226.68,282.23l-17,8.66-8.5,4.28c-1.41.72-2.85,1.41-4.23,2.16s-2.78,1.53-4.15,2.31c-11,6.32-22,12.74-32.79,19.34-1.35.83-2.7,1.63-4,2.54l-3.83,2.8q-3.83,2.83-7.57,5.76c-2.49,2-4.95,3.95-7.36,6a69.18,69.18,0,0,0-6.83,6.53c-4.1,4.81-7.94,9.88-11.81,14.9s-7.72,10.07-11.54,15.15c7.41-10.32,14.74-20.67,22.77-30.56a63.51,63.51,0,0,1,6.85-6.68c2.4-2.08,4.87-4.09,7.36-6.06s5-3.91,7.56-5.81l3.83-2.83c1.31-1,2.69-1.77,4-2.6,5.44-3.3,10.91-6.51,16.39-9.71s11-6.39,16.54-9.44c1.4-.77,2.79-1.53,4.2-2.27s2.86-1.4,4.28-2.1l8.57-4.16Z"></path><path d="M129.23,377.9l25.86-19c4.34-3.11,8.66-6.26,13.11-9.24s9.24-5.41,13.91-8q14-7.77,28.28-15.15c4.76-2.44,9.52-4.88,14.35-7.19,2.41-1.16,4.84-2.29,7.32-3.33a48.77,48.77,0,0,1,7.75-2.3c10.45-2.35,20.95-4.32,31.46-6.33L287,304.42c2.6-.54,5.3-.9,8-1.18s5.32-.55,8-.78c10.65-1,21.3-1.8,32-2.61l32-2.18-32,2.67c-10.65.88-21.3,1.75-31.94,2.78-2.66.25-5.32.53-8,.82s-5.26.66-7.89,1.22l-15.75,3c-10.48,2.06-21,4.09-31.39,6.48a48.59,48.59,0,0,0-7.61,2.21c-2.46,1-4.88,2.13-7.29,3.27-4.83,2.28-9.6,4.69-14.36,7.11q-14.27,7.31-28.34,15c-4.67,2.58-9.38,5.13-13.91,7.92s-8.78,6.08-13.15,9.16Z"></path><path d="M298.81,316.34c4.54-1.56,9.13-3,13.74-4.34,2.3-.69,4.62-1.3,7-1.88a43.26,43.26,0,0,1,7.22-.87q7.2-.35,14.4-.37h7.2c2.4.06,4.8.08,7.2.18l-7.19.31-7.19.26c-4.8.18-9.59.31-14.37.61a41.23,41.23,0,0,0-7.06.76c-2.33.52-4.64,1.16-7,1.73Z"></path><path d="M135.71,373.2q9-5.22,18.13-10.35,4.56-2.55,9.16-5c3.06-1.64,6.14-3.3,9.31-4.75q19-8.76,38.11-17.11c1.6-.68,3.2-1.37,4.84-2,.39-.16.88-.31,1.29-.45s.77-.24,1.19-.4c.8-.29,1.61-.62,2.42-.92l9.68-3.9,9.68-3.91c3.24-1.29,6.46-2.6,9.78-3.73a11.22,11.22,0,0,1,2.62-.55c.87-.11,1.74-.19,2.61-.26,1.74-.14,3.47-.26,5.21-.36q5.22-.32,10.43-.54,10.44-.4,20.88-.66-10.44.51-20.85,1.15c-3.47.21-6.95.42-10.41.68-1.74.12-3.47.26-5.2.43-.86.08-1.72.17-2.58.29a10.29,10.29,0,0,0-2.47.55c-6.48,2.41-12.91,5.13-19.35,7.76l-9.68,3.93c-.81.32-1.62.65-2.44.95-.41.15-.84.3-1.29.43s-.75.25-1.17.42c-1.6.63-3.2,1.33-4.8,2-12.78,5.48-25.48,11.2-38.18,16.88-3.17,1.41-6.25,3-9.34,4.62l-9.21,4.9Q144.87,368.19,135.71,373.2Z"></path><path d="M540.3,317.41,517,329.89l-23.34,12.39-23.37,12.33-5.85,3.08-2.92,1.53-1.46.77-.38.19-.46.17a8.73,8.73,0,0,1-.85.21c-2.22.42-4.4.62-6.61.84s-4.4.39-6.6.53-4.41.24-6.62.29c-1.1,0-2.21,0-3.33,0-.28,0-.56,0-.85,0a4.29,4.29,0,0,1-.89-.12,2.28,2.28,0,0,1-.86-.34,8.51,8.51,0,0,1-.74-.44c-3.77-2.34-7.4-4.81-11.07-7.26-7.29-4.95-14.57-9.91-21.7-15.11-1.77-1.32-3.57-2.57-5.25-4.08l-1.23-1.06-1.3-1c-.85-.69-1.76-1.31-2.64-2-3.57-2.56-7.24-5-10.91-7.43-7.34-4.87-14.77-9.6-22.24-14.27q11.34,6.8,22.51,13.86c3.71,2.38,7.39,4.8,11,7.33.89.65,1.81,1.26,2.68,1.95l1.32,1,1.28,1.09c1.62,1.42,3.45,2.67,5.22,4q10.77,7.64,21.76,15c3.66,2.44,7.32,4.91,11.05,7.2.23.15.47.29.68.4a1.63,1.63,0,0,0,.67.27,3.73,3.73,0,0,0,.73.09c.27,0,.53.05.81.05,1.08,0,2.17,0,3.27,0,2.19-.05,4.39-.17,6.58-.31s4.39-.3,6.57-.5,4.39-.41,6.5-.81a6,6,0,0,0,.75-.17l.32-.11a3,3,0,0,0,.36-.18l1.47-.76,2.93-1.53,5.86-3.06L493.3,341.6l23.48-12.14Z"></path><path d="M423.65,337.79c5.14.2,10.28.38,15.42.31,1.28,0,2.57,0,3.84-.11a23.64,23.64,0,0,0,3.79-.42,11.85,11.85,0,0,0,1.77-.59c.59-.25,1.19-.47,1.76-.75,1.17-.53,2.32-1.08,3.46-1.66,9.15-4.66,18.08-9.78,27-14.88l6.72-3.8c1.11-.63,2.29-1.23,3.35-1.88s2.15-1.37,3.21-2.1c4.26-2.86,8.44-5.86,12.65-8.8l25.19-17.84q-12.26,9.39-24.74,18.46-6.22,4.56-12.59,8.94c-1.06.73-2.14,1.44-3.24,2.14s-2.25,1.27-3.36,1.92l-6.7,3.82q-6.7,3.81-13.47,7.54c-4.52,2.46-9,4.94-13.69,7.16-1.16.57-2.33,1.11-3.52,1.62-.58.27-1.2.49-1.8.73a13.88,13.88,0,0,1-1.89.59,24.24,24.24,0,0,1-3.88.36c-1.29.05-2.58.05-3.87,0C433.92,338.5,428.78,338.22,423.65,337.79Z"></path><path d="M527.12,352.82l7.58-16.45c1.22-2.76,2.5-5.49,3.63-8.28a20.28,20.28,0,0,0,1.34-4.22,36.2,36.2,0,0,0,.53-4.43c.23-3,.28-6,.22-9,0-1.5-.09-3-.17-4.5,0-.75-.11-1.5-.18-2.24,0-.37-.07-.75-.14-1.08a5.17,5.17,0,0,0-.33-1c-1.15-2.75-2.51-5.47-3.83-8.18l-3.95-8.15c3,5.27,5.91,10.52,8.49,16a6.46,6.46,0,0,1,.41,1.12c.09.41.13.78.18,1.16.09.76.15,1.52.21,2.28.1,1.51.18,3,.22,4.54.09,3,.07,6.06-.13,9.1a35.21,35.21,0,0,1-.6,4.55,21.18,21.18,0,0,1-1.43,4.38c-1.18,2.8-2.44,5.54-3.78,8.26Q531.43,344.85,527.12,352.82Z"></path><path d="M551.42,251.35c1.45.68,2.87,1.41,4.31,2.1l4.27,2.17,4.27,2.15c.72.35,1.43.72,2.14,1a5.88,5.88,0,0,0,1.05.35c.38.08.75.18,1.14.24,3.11.58,6.29.93,9.44,1.37l4.75.62,4.75.67c-3.2-.06-6.39-.27-9.58-.52s-6.36-.59-9.54-1.16c-.4-.06-.8-.17-1.2-.26a6.91,6.91,0,0,1-1.21-.42c-.75-.34-1.46-.71-2.17-1.08-1.41-.76-2.82-1.51-4.2-2.32C556.87,254.71,554.11,253.08,551.42,251.35Z"></path><path d="M599.69,277.4a34.49,34.49,0,0,1-1.74,3.93,28.3,28.3,0,0,1-2.22,3.72,8.16,8.16,0,0,1-.74.87,2.65,2.65,0,0,1-.53.42l-.44.25c-.6.33-1.2.73-1.81,1.09-1.21.75-2.44,1.47-3.71,2.15a37.75,37.75,0,0,1,3.27-2.8c.57-.44,1.15-.85,1.76-1.25a4,4,0,0,1,.49-.29,2.1,2.1,0,0,0,.28-.26,6.3,6.3,0,0,0,.63-.78c.82-1.11,1.57-2.32,2.35-3.51S598.85,278.57,599.69,277.4Z"></path><path d="M530.68,292.5c-1.73,1.41-3.5,2.74-5.26,4.09l-2.62,2c-.42.35-.86.69-1.23,1a2,2,0,0,0-.15.16s0-.1,0-.15h0v.06l0,.15a5.66,5.66,0,0,0,.29.69,5.82,5.82,0,0,0,.81,1.28,1.09,1.09,0,0,0,.41.32s0,0,0,0l.14-.05.38-.14,3.07-1.23,3.09-1.23c1.05-.38,2.08-.79,3.14-1.15-1,.56-2,1.07-2.93,1.6l-3,1.48c-1,.5-2,1-3,1.41l-.4.16a1.48,1.48,0,0,1-.25.08,1,1,0,0,1-.41,0,1.81,1.81,0,0,1-.94-.61,6.19,6.19,0,0,1-1-1.5,6.53,6.53,0,0,1-.33-.85l-.06-.25,0-.15v-.09a.6.6,0,0,1,.06-.25,1.58,1.58,0,0,1,.38-.47,14.31,14.31,0,0,1,1.33-1.08c.91-.66,1.81-1.3,2.75-1.9C526.84,294.75,528.73,293.57,530.68,292.5Z"></path><polygon points="388.91 309.07 398.21 306.52 407.53 304.05 426.2 299.22 444.91 294.56 454.29 292.28 463.68 290.09 454.38 292.64 445.06 295.11 426.39 299.94 407.67 304.6 398.3 306.87 388.91 309.07"></polygon><path d="M448.59,240.67c2-2,4-3.93,6.17-5.76a10.72,10.72,0,0,1,1.74-1.25c.7-.24,1.38-.34,2.07-.51l4.11-.91c2.75-.6,5.5-1.16,8.26-1.72l4.14-.81a14.3,14.3,0,0,1,2.11-.3,6.5,6.5,0,0,1,1.09,0c.35,0,.7.06,1.05.11,2.8.36,5.57.87,8.33,1.39s5.53,1.06,8.27,1.65c5.5,1.17,11,2.37,16.44,3.77-2.74-.64-5.49-1.18-8.25-1.73L495.86,233c-5.52-1.06-11-2.19-16.59-2.93-.34-.05-.69-.07-1-.11a7.11,7.11,0,0,0-1-.05,13.79,13.79,0,0,0-2.06.29L471,231l-8.27,1.65-4.13.84a20.56,20.56,0,0,0-2,.46,11,11,0,0,0-1.7,1.18C452.73,236.86,450.65,238.76,448.59,240.67Z"></path></g><path d="M601.23,250.47c4.43-1,8.88-1.87,13.33-2.74s8.92-1.65,13.38-2.48,8.93-1.54,13.41-2.24l6.73-1c2.24-.31,4.48-.66,6.74-.94-2.22.51-4.44.95-6.66,1.42l-6.67,1.32c-4.45.87-8.92,1.65-13.38,2.48s-8.94,1.54-13.42,2.25S605.73,249.89,601.23,250.47Z" style="fill:#263238"></path><path d="M591.92,252.11c5.21-1.13,10.43-2.15,15.66-3.15s10.47-1.92,15.7-2.89,10.49-1.81,15.75-2.65l7.88-1.25c2.64-.38,5.27-.8,7.91-1.15-2.6.58-5.22,1.09-7.82,1.63l-7.84,1.52c-5.23,1-10.47,1.93-15.7,2.89s-10.49,1.81-15.75,2.66S597.2,251.39,591.92,252.11Z" style="fill:#263238"></path><path d="M616.23,257.8c6.13-1.29,12.28-2.47,18.43-3.64s12.32-2.25,18.48-3.38,12.34-2.14,18.52-3.14l9.27-1.5c3.1-.46,6.19-1,9.3-1.39-3.07.66-6.14,1.25-9.21,1.88l-9.23,1.76c-6.15,1.17-12.31,2.25-18.47,3.38s-12.34,2.14-18.52,3.14S622.43,256.92,616.23,257.8Z" style="fill:#263238"></path><path d="M608.22,270c5.29-1.14,10.6-2.18,15.91-3.2s10.64-1.95,16-2.93,10.66-1.84,16-2.7l8-1.27c2.68-.39,5.35-.81,8-1.17-2.64.58-5.29,1.1-7.94,1.65l-8,1.54c-5.31,1-10.64,2-16,2.94s-10.66,1.84-16,2.7S613.58,269.27,608.22,270Z" style="fill:#263238"></path></g></svg>